HIERARCHY
ROOT pelvis
{
  OFFSET 0 100 0
  CHANNELS 6 Xposition Yposition Zposition Zrotation Xrotation Yrotation
  JOINT pelvis_right_femur
  {
    OFFSET -10.78128 -3.44521 -0.5502486
    CHANNELS 3 Zrotation Xrotation Yrotation
    JOINT right_femur_tibia
    {
      OFFSET -0.8047443 -44.0398 -0.1307829
      CHANNELS 3 Zrotation Xrotation Yrotation
      JOINT right_tibia_foot
      {
        OFFSET 3.006224 -47.83518 -5
        CHANNELS 3 Zrotation Xrotation Yrotation
        End Site
        {
          OFFSET 0 -5 15
        }
      }
    }
  }
  JOINT pelvis_left_femur
  {
    OFFSET 10.78128 -3.44521 -0.5502486
    CHANNELS 3 Zrotation Xrotation Yrotation
    JOINT left_femur_tibia
    {
      OFFSET 0.8047443 -44.0398 -0.1307829
      CHANNELS 3 Zrotation Xrotation Yrotation
      JOINT left_tibia_foot
      {
        OFFSET -4.370144 -48.10324 -4.275266
        CHANNELS 3 Zrotation Xrotation Yrotation
        End Site
        {
          OFFSET 0 -5 15
        }
      }
    }
  }
  JOINT pelvis_spine1
  {
    OFFSET 0 6.468898 -3.129235
    CHANNELS 3 Zrotation Xrotation Yrotation
    JOINT spine1
    {
      OFFSET 0 23.15396 4.99043
      CHANNELS 3 Zrotation Xrotation Yrotation
      JOINT spine2
      {
        OFFSET 0 20.79997 -5.064912
        CHANNELS 3 Zrotation Xrotation Yrotation
        JOINT neck
        {
          OFFSET 0 14.38658 9.616178
          CHANNELS 3 Zrotation Xrotation Yrotation
          End Site
          {
            OFFSET 0 20 0
          }
        }
      }
      JOINT right_manubrium
      {
        OFFSET -5.722621 16.35077 3.967754
        CHANNELS 3 Zrotation Xrotation Yrotation
        JOINT right_clavicle
        {
          OFFSET -13.16364 1.694482 -4.693211
          CHANNELS 3 Zrotation Xrotation Yrotation
          JOINT right_humerus
          {
            OFFSET -28.5034 -0.3100689 -2.792744
            CHANNELS 3 Zrotation Xrotation Yrotation
            JOINT right_radius
            {
              OFFSET -25.15693 0.02248979 -1.271978
              CHANNELS 3 Zrotation Xrotation Yrotation
              End Site
              {
                OFFSET -15 0 0
              }
            }
          }
        }
      }
      JOINT left_manubrium
      {
        OFFSET 5.722621 16.35077 3.967754
        CHANNELS 3 Zrotation Xrotation Yrotation
        JOINT left_clavicle
        {
          OFFSET 13.16364 1.694482 -4.693211
          CHANNELS 3 Zrotation Xrotation Yrotation
          JOINT left_humerus
          {
            OFFSET 29.39168 -1.063119 -2.237045
            CHANNELS 3 Zrotation Xrotation Yrotation
            JOINT left_radius
            {
              OFFSET 24.59957 -0.9528479 0.9047498
              CHANNELS 3 Zrotation Xrotation Yrotation
              End Site
              {
                OFFSET 15 -0 -0
              }
            }
          }
        }
      }
    }
  }
}
MOTION
Frames: 7
Frame Time: 0.0416666666667
48.47226 97.84052 248.0147 3.804709 -7.928549 5.710041 -0.4494771 17.74593 6.909468 -0 17.78599 -0 6.698195 -11.53505 -0.8092484 -2.620738 -19.1733 -6.409643 -0 32.28145 -0 -6.990788 -7.145081 18.93911 -2.041867 -0.9686089 9.240669 -1.146718 10.3435 -2.95701 2.613645 21.99419 5.173298 1.87912 -14.63707 7.36667 2.007623 -19.83682 11.33917 81.68269 23.12802 -7.861615 -0 0 23.04336 -24.72684 14.27326 12.68315 4.650915 -15.33121 -3.313631 -91.9008 21.82593 22.4673 0 0 -13.32696 -2.273168 7.30129 15.35303
50.32686 97.75127 254.3636 3.984091 -7.990775 6.179346 -0.90083 17.47989 6.669565 -0 21.54213 -0 7.118917 -11.19777 -1.053516 -3.137174 -18.47167 -6.990529 -0 30.17714 -0 -6.946486 -7.766657 18.70986 -2.23435 -0.9819808 9.065657 -1.288993 10.02495 -2.877028 2.685588 22.13389 5.153959 1.734999 -14.51955 7.56009 1.864256 -19.70803 11.10543 81.82819 22.89577 -7.552363 -0 0 23.1077 -24.67869 14.10053 12.65403 4.54509 -14.89121 -3.329837 -91.79714 22.15313 22.40364 0 0 -12.66975 -2.430686 7.390181 15.56625
52.26456 97.77877 260.7133 4.153327 -8.044562 6.840016 -1.251726 16.35772 6.313692 -0 25.11737 -0 7.399648 -10.73934 -1.456981 -3.698145 -16.94128 -7.603932 -0 28.23807 -0 -6.878625 -8.48167 18.36963 -2.423671 -0.9712927 8.732265 -1.364567 9.719199 -2.919223 2.742606 22.301 5.147215 1.583702 -14.39302 7.761836 1.751403 -19.40411 10.85873 82.18624 22.78624 -7.614993 -0 0 22.77386 -24.49112 13.96289 12.51781 4.472869 -14.62467 -3.383896 -91.4197 22.51834 21.86104 0 0 -12.32959 -2.470037 7.539273 15.63404
54.25817 97.90665 267.0148 4.3082 -8.101242 7.688413 -1.479512 14.35466 5.852809 -0 28.28698 -0 7.509116 -10.24737 -2.011519 -4.242517 -14.65677 -8.193317 -0 26.4729 -0 -6.793131 -9.299486 17.93965 -2.600459 -0.9087753 8.24267 -1.370451 9.435098 -3.079248 2.784158 22.50262 5.151535 1.427323 -14.24675 7.967398 1.661871 -18.93555 10.60712 82.74327 22.79459 -8.0379 -0 0 22.06562 -24.16429 13.85712 12.27556 4.446392 -14.55635 -3.47471 -90.76594 22.91216 20.81332 0 0 -12.34885 -2.381857 7.755122 15.53393
56.27738 98.10554 273.216 4.448292 -8.164774 8.713561 -1.586569 11.53085 5.31062 -0 30.89651 -0 7.434259 -9.783838 -2.696525 -4.728526 -11.73103 -8.721514 -0 24.89284 -0 -6.696869 -10.21473 17.44206 -2.758221 -0.7820883 7.612945 -1.30901 9.176519 -3.344445 2.811907 22.7391 5.16339 1.269057 -14.07752 8.171351 1.589155 -18.32112 10.35739 83.47703 22.90508 -8.788606 -0 0 21.02478 -23.70612 13.7772 11.93366 4.471086 -14.68921 -3.597163 -89.85723 23.31578 19.27971 0 0 -12.72966 -2.166418 8.037693 15.25964
58.29246 98.34093 279.2749 4.57585 -8.229872 9.896452 -1.593007 8.04148 4.721991 -0 32.83742 -0 7.176223 -9.389029 -3.478752 -5.131853 -8.319765 -9.169347 -0 23.52885 -0 -6.598731 -11.20352 16.90074 -2.893021 -0.5956325 6.874889 -1.187381 8.942141 -3.692834 2.830726 23.00317 5.175804 1.11425 -13.8908 8.365897 1.526875 -17.58693 10.11559 84.35317 23.09256 -9.812581 -0 0 19.70997 -23.13041 13.71401 11.50199 4.546471 -15.00477 -3.74068 -88.74159 23.70409 17.32797 0 0 -13.43399 -1.832714 8.381468 14.81944
60.27816 98.57901 285.172 4.693529 -8.28192 11.20797 -1.525076 4.132786 4.128552 -0 34.01428 -0 6.744316 -9.090465 -4.313229 -5.439411 -4.622225 -9.529863 -0 22.442 -0 -6.509772 -12.22355 16.34233 -3.003243 -0.3687478 6.075658 -1.016342 8.726039 -4.093225 2.849204 23.28036 5.177453 0.9710951 -13.70027 8.539799 1.467869 -16.76498 9.887709 85.32262 23.32574 -11.0341 -0 0 18.19427 -22.45449 13.65514 10.99206 4.668194 -15.46652 -3.888748 -87.4922 24.05166 15.07079 0 0 -14.38983 -1.396472 8.777573 14.2323
